<?xml version="1.0" encoding="utf-8"?>
<!-- Generator: Adobe Illustrator 21.1.0, SVG Export Plug-In . SVG Version: 6.00 Build 0)  -->
<svg version="1.1" id="Layer_1" xmlns="http://www.w3.org/2000/svg" xmlns:xlink="http://www.w3.org/1999/xlink" x="0px" y="0px"
	 viewBox="0 0 3000 3000" style="enable-background:new 0 0 3000 3000;" xml:space="preserve">
<style type="text/css">
	.st0{fill:#FF6756;}
	.st1{fill:#CCCCCC;}
	.st2{fill:#FCC63C;}
</style>
<path d="M2666.8,1026c-1,0-2,0-3,0l7.8,0C2670,1026,2668.4,1026,2666.8,1026z"/>
<circle cx="1500" cy="1500" r="1495"/>
<path class="st0" d="M223.8,1500c0-641,472.5-1171.5,1088.2-1262.4l-0.4-220.8C574.9,109.4,5,738.1,5,1500
	C5,2262,575.2,2890.9,1312.2,2983.3v-220.9C696.4,2671.6,223.8,2141,223.8,1500z"/>
<path class="st0" d="M1726.4,22l-9.8,178l-2.2,41.7c602.7,102,1061.8,626.4,1061.8,1258.2c0,641-472.6,1171.6-1088.4,1262.4v220.9
	C2424.8,2890.9,2995,2262,2995,1500C2995,751.3,2444.6,131.1,1726.4,22z"/>
<path class="st0" d="M1273.4,22l9.8,178l2.2,41.7C682.7,343.8,223.6,868.2,223.6,1500c0,641,472.6,1171.6,1088.4,1262.4v220.9
	C575,2890.9,4.8,2262,4.8,1500C4.8,751.3,555.2,131.1,1273.4,22z"/>
<path class="st1" d="M1660.2,1500.1c0-88.5-71.7-160.2-160.2-160.2c-88.5,0-160.2,71.7-160.2,160.2c0,50.2,23.2,95,59.3,124.4
	v1147.2v219.5c35.3,2.5,70.9,3.9,106.8,3.9c35.9,0,71.5-1.4,106.8-3.9v-219.5V1613.8C1642,1584.8,1660.2,1544.6,1660.2,1500.1z"/>
<path class="st2" d="M1678.9,420c-29.1-0.1-53.3-0.3-53.8-0.6c0,0-0.1-0.2-0.1-0.6l-0.8,0l2.3-40.5c1.1-23.5,2.6-56.1,4.7-95
	l2.7-52.4l1.8-34.8l0.4-6.8l0,0l9.8-177.1c-46.4-4.5-93.4-6.9-141-7l-7.8,0c-35.1,0.1-69.9,1.5-104.4,3.9l0.1,29c0,3.2,0,6.8,0,10.7
	c0,0.2,0,0.3,0,0.5c0,9.5,0,20.8,0,33.1l0.3,146.1l0.6,350.5c0.4,0.1,2.4,0.2,5.6,0.3l41,0.4c0.8,0,1.6,0,2.4,0
	c37.1,0,48.6,0,52.2,0.5c1.7,0.2,1.6,0.6,1.6,1.2l1.1,0l-1.3,370c-0.2,134.8-0.2,209.9-0.2,249.2l-0.6-0.4l-0.3,98.5l15.6-57.8
	l7.4-27.5L1710,502.6c13.2-49.4,21.9-81.9,21.8-82.1C1731.9,420.2,1708,419.9,1678.9,420z"/>
<circle class="st1" cx="1500" cy="1500" r="193"/>
</svg>
